# Blender v2.81 (sub 16) OBJ File: ''
# www.blender.org
mtllib testscene.mtl
o Cube
v 1.000000 1.000000 -1.000000
v 1.000000 -1.000000 -1.000000
v 1.000000 1.000000 1.000000
v 1.000000 -1.000000 1.000000
v -1.000000 1.000000 -1.000000
v -1.000000 -1.000000 -1.000000
v -1.000000 1.000000 1.000000
v -1.000000 -1.000000 1.000000
v -1.000000 -1.000000 0.602595
v 1.000000 1.000000 0.602595
v -1.000000 1.000000 0.602595
v 1.000000 -1.000000 0.602595
v -1.000000 1.000000 -0.639882
v 1.000000 -1.000000 -0.639882
v -1.000000 -1.000000 -0.639882
v 1.000000 1.000000 -0.639882
v 1.000000 0.588793 -1.000000
v -1.000000 0.588793 1.000000
v 1.000000 0.588793 1.000000
v -1.000000 0.588793 -1.000000
v 1.000000 0.588793 0.602595
v -1.000000 0.588793 0.602595
v 1.000000 0.588793 -0.639882
v -1.000000 0.588793 -0.639882
v 4.614993 0.588793 0.602595
v 4.614993 -1.000000 0.602595
v 4.614993 -1.000000 -0.639882
v 4.614993 0.588793 -0.639882
v 3.743878 -1.000000 0.602595
v 3.743878 0.588793 0.602595
v 3.743878 -1.000000 -0.639882
v 3.743878 0.588793 -0.639882
v 4.614993 0.588793 -4.494411
v 4.614993 -1.000000 -4.494411
v 3.743878 -1.000000 -4.494411
v 3.743878 0.588793 -4.494411
v 4.614993 0.588793 4.031352
v 4.614993 -1.000000 4.031352
v 3.743878 -1.000000 4.031352
v 3.743878 0.588793 4.031352
v 3.743878 0.588793 -2.188575
v 3.743878 -1.000000 -2.188575
v 4.614993 -1.000000 -2.188575
v 4.614993 0.588793 -2.188575
v 3.743878 0.588793 -3.059168
v 3.743878 -1.000000 -3.059168
v 4.614993 -1.000000 -3.059168
v 4.614993 0.588793 -3.059168
v -1.511477 -1.000000 -3.059168
v -1.511477 -1.000000 -2.188575
v -1.511477 0.588793 -2.188575
v -1.511477 0.588793 -3.059168
v 3.743878 0.588793 -3.302212
v 3.743878 -1.000000 -3.302212
v -1.511477 0.588793 -3.302212
v -1.511477 -1.000000 -3.302212
v 3.743878 0.588793 -1.959987
v 3.743878 -1.000000 -1.959987
v -1.511477 0.588793 -1.959987
v -1.511477 -1.000000 -1.959987
v 3.743878 0.848802 -2.188575
v 3.743878 0.848802 -3.059168
v -1.511477 0.848802 -2.188575
v -1.511477 0.848802 -3.059168
v -1.511477 0.848802 -3.302212
v 3.743878 0.848802 -3.302212
v 3.743878 0.848802 -1.959987
v -1.511477 0.848802 -1.959987
v -3.417232 -1.000000 -3.059168
v -3.417232 -1.000000 -2.188575
v -3.417232 0.588793 -2.188575
v -3.417232 0.588793 -3.059168
v -2.642904 0.588793 -2.188575
v -2.642904 -1.000000 -2.188575
v -2.642904 0.588793 -3.059168
v -2.642904 -1.000000 -3.059168
v -3.417232 0.588793 1.681413
v -3.417232 -1.000000 1.681413
v -2.642904 0.588793 1.681413
v -2.642904 -1.000000 1.681413
v -1.846784 -1.000000 -0.639882
v -1.846784 -1.000000 0.602595
v -1.846784 0.588793 0.602595
v -1.846784 0.588793 -0.639882
v 0.079567 -1.000000 -1.000000
v 0.079567 1.000000 1.000000
v 0.079567 -1.000000 1.000000
v 0.079567 1.000000 -1.000000
v 0.079567 -1.000000 0.602595
v 0.079567 1.000000 0.602595
v 0.079567 1.000000 -0.639882
v 0.079567 -1.000000 -0.639882
v 0.079567 0.588793 -1.000000
v 0.079567 0.588793 1.000000
v 1.000000 0.588793 4.767705
v 1.000000 -1.000000 4.767705
v 0.079567 -1.000000 4.767705
v 0.079567 0.588793 4.767705
v 1.000000 -1.000000 3.931345
v 0.079567 -1.000000 3.931345
v 0.079567 0.588793 3.931345
v 1.000000 0.588793 3.931345
v 4.619975 0.588793 4.767705
v 4.619975 -1.000000 4.767705
v 4.619975 -1.000000 3.931345
v 4.619975 0.588793 3.931345
v 3.760718 -1.000000 3.931345
v 3.760718 -1.000000 4.767705
v 3.760718 0.588793 3.931345
v 3.760718 0.588793 4.767705
v -3.417232 -1.000000 -1.520210
v -3.417232 0.588793 -1.520210
v -2.642904 0.588793 -1.520210
v -2.642904 -1.000000 -1.520210
v -3.417232 -1.000000 -0.712663
v -3.417232 0.588793 -0.712663
v -2.642904 0.588793 -0.712663
v -2.642904 -1.000000 -0.712663
v -5.358183 0.588793 -0.712663
v -5.358183 0.588793 -1.520210
v -5.358183 -1.000000 -1.520210
v -5.358183 -1.000000 -0.712663
v -3.417232 -1.000000 0.365969
v -3.417232 0.588793 0.365970
v -5.358183 -1.000000 0.365969
v -5.358183 0.588793 0.365970
v -3.417232 1.497337 -0.712663
v -3.417232 1.497337 -1.520210
v -5.358183 1.497337 -0.712663
v -5.358183 1.497337 -1.520210
v -5.358183 1.497337 0.365970
v -3.417232 1.497337 0.365970
v -5.916516 0.588793 4.767705
v -5.916516 -1.000000 4.767705
v -5.916516 0.588793 3.931345
v -5.916516 -1.000000 3.931345
v -3.417232 0.588793 2.461027
v -3.417232 -1.000000 2.461027
v -2.642904 0.588793 2.461027
v -2.642904 -1.000000 2.461027
v -6.037752 0.588793 1.681413
v -6.037752 -1.000000 1.681413
v -6.037752 0.588793 2.461027
v -6.037752 -1.000000 2.461027
v -3.417232 0.588793 0.431108
v -3.417232 -1.000000 0.431108
v -6.037752 0.588793 0.431108
v -6.037752 -1.000000 0.431108
v -3.417232 0.909889 2.461027
v -3.417232 0.909889 1.681413
v -6.037752 0.909889 2.461027
v -6.037752 0.909889 1.681413
v -6.037752 0.909889 0.431108
v -3.417232 0.909889 0.431108
v 4.614993 -1.000000 3.255071
v 3.743878 -1.000000 3.255071
v 3.743878 0.588793 3.255071
v 4.614993 0.588793 3.255071
v 3.743878 -1.000000 2.506142
v 3.743878 0.588793 2.506142
v 4.614993 -1.000000 2.506142
v 4.614993 0.588793 2.506142
v 8.014174 -1.000000 2.506142
v 8.014174 -1.000000 3.255071
v 8.014174 0.588793 2.506142
v 8.014174 0.588793 3.255071
v 10.042196 -1.000000 2.506142
v 10.042196 -1.000000 3.255071
v 10.042196 0.588793 2.506142
v 10.042196 0.588793 3.255071
v 8.014174 0.588793 3.899665
v 8.014174 -1.000000 3.899665
v 10.042196 0.588793 3.899665
v 10.042196 -1.000000 3.899665
v 8.014174 0.588793 1.861010
v 8.014174 -1.000000 1.861010
v 10.042196 0.588793 1.861010
v 10.042196 -1.000000 1.861010
v 8.014174 1.185301 2.506142
v 8.014174 1.185301 3.255071
v 10.042196 1.185301 2.506142
v 10.042196 1.185301 3.255071
v 10.042196 1.185301 3.899665
v 8.014174 1.185301 3.899665
v 8.014174 1.185301 1.861010
v 10.042196 1.185301 1.861010
v 8.014174 1.185301 2.506142
v 8.014174 1.185301 3.255071
v 10.042196 1.185301 2.506142
v 10.042196 1.185301 3.255071
v 10.042196 1.185301 3.899665
v 8.014174 1.185301 3.899665
v 8.014174 1.185301 1.861010
v 10.042196 1.185301 1.861010
v 0.079567 0.588793 5.343891
v 0.079567 -1.000000 5.343891
v -5.916516 0.588793 5.343891
v -5.916516 -1.000000 5.343891
v 0.079567 -1.000000 3.383105
v 0.079567 0.588793 3.383105
v -5.916516 -1.000000 3.383105
v -5.916516 0.588793 3.383105
v 0.079567 1.819649 3.931345
v 0.079567 1.819649 4.767705
v -5.916516 1.819649 3.931345
v -5.916516 1.819649 4.767705
v -5.916516 1.819649 5.343891
v 0.079567 1.819649 5.343891
v 0.079567 1.819649 3.383105
v -5.916516 1.819649 3.383105
v -0.081687 0.588793 4.767705
v -0.081687 -1.000000 4.767705
v -0.081687 0.588793 3.931345
v -0.081687 -1.000000 3.931345
v -0.081687 1.819649 3.931345
v -0.081687 0.588793 3.383105
v -0.081687 1.819649 3.383105
v -0.081687 0.588793 5.343891
v -0.081687 -1.000000 5.343891
v -0.081687 -1.000000 3.383105
v -0.081687 1.819649 4.767705
v -0.081687 1.819649 5.343891
v -3.586161 0.588793 1.681413
v -3.586161 -1.000000 1.681413
v -3.586161 0.588793 2.461027
v -3.586161 0.588793 0.431108
v -3.586161 -1.000000 0.431108
v -3.586161 0.909889 2.461027
v -3.586161 0.909889 1.681413
v -3.586161 0.909889 0.431108
v -3.586161 0.588793 1.681413
v -3.586161 -1.000000 1.681413
v -3.586161 0.588793 2.461027
v -3.586161 0.588793 0.431108
v -3.586161 -1.000000 0.431108
v -3.586161 0.909889 2.461027
v -3.586161 0.909889 1.681413
v -3.586161 0.909889 0.431108
v -3.541367 0.588793 -0.712663
v -3.541367 0.588793 -1.520210
v -3.541367 -1.000000 -0.712663
v -3.541367 1.497337 -0.712663
v -3.541367 -1.000000 0.365969
v -3.541367 0.588793 0.365970
v -3.541367 1.497337 -1.520210
v -3.541367 1.497337 0.365970
vt 0.740054 0.700324
vt 0.875000 0.700324
vt 0.875000 0.750000
vt 0.740054 0.750000
vt 0.573599 0.865054
vt 0.625000 0.865054
vt 0.625000 1.000000
vt 0.573599 1.000000
vt 0.573599 0.204985
vt 0.625000 0.204985
vt 0.625000 0.250000
vt 0.573599 0.250000
vt 0.259946 0.700324
vt 0.375000 0.700324
vt 0.375000 0.750000
vt 0.259946 0.750000
vt 0.573599 0.700324
vt 0.625000 0.700324
vt 0.625000 0.750000
vt 0.573599 0.750000
vt 0.573599 0.384946
vt 0.625000 0.384946
vt 0.625000 0.500000
vt 0.573599 0.500000
vt 0.573599 0.545015
vt 0.625000 0.545015
vt 0.259946 0.545015
vt 0.375000 0.545015
vt 0.573599 0.000000
vt 0.625000 0.000000
vt 0.625000 0.049676
vt 0.573599 0.049676
vt 0.740054 0.545015
vt 0.875000 0.545015
vt 0.740054 0.500000
vt 0.875000 0.500000
vt 0.259946 0.500000
vt 0.375000 0.500000
vt 0.375000 0.204985
vt 0.375000 0.204985
vt 0.573599 0.204985
vt 0.375000 0.000000
vt 0.375000 0.049676
vt 0.375000 0.700324
vt 0.375000 0.700324
vt 0.375000 0.700324
vt 0.375000 0.700324
vt 0.375000 0.384946
vt 0.375000 0.250000
vt 0.375000 0.865054
vt 0.375000 1.000000
vt 0.375000 0.545015
vt 0.573599 0.545015
vt 0.573599 0.700324
vt 0.375000 0.700324
vt 0.375000 0.700324
vt 0.375000 0.545015
vt 0.573599 0.545015
vt 0.573599 0.700324
vt 0.375000 0.545015
vt 0.573599 0.545015
vt 0.573599 0.545015
vt 0.375000 0.545015
vt 0.573599 0.545015
vt 0.375000 0.545015
vt 0.375000 0.545015
vt 0.573599 0.545015
vt 0.375000 0.545015
vt 0.375000 0.545015
vt 0.375000 0.545015
vt 0.375000 0.545015
vt 0.573599 0.700324
vt 0.573599 0.700324
vt 0.573599 0.700324
vt 0.573599 0.700324
vt 0.573599 0.545015
vt 0.573599 0.545015
vt 0.375000 0.545015
vt 0.375000 0.545015
vt 0.375000 0.545015
vt 0.573599 0.545015
vt 0.573599 0.545015
vt 0.375000 0.545015
vt 0.375000 0.545015
vt 0.573599 0.545015
vt 0.573599 0.545015
vt 0.375000 0.545015
vt 0.375000 0.545015
vt 0.573599 0.545015
vt 0.375000 0.545015
vt 0.573599 0.545015
vt 0.573599 0.545015
vt 0.573599 0.545015
vt 0.375000 0.545015
vt 0.573599 0.545015
vt 0.573599 0.545015
vt 0.375000 0.545015
vt 0.573599 0.545015
vt 0.573599 0.545015
vt 0.573599 0.545015
vt 0.573599 0.545015
vt 0.573599 0.545015
vt 0.573599 0.545015
vt 0.573599 0.545015
vt 0.573599 0.545015
vt 0.375000 0.545015
vt 0.573599 0.545015
vt 0.573599 0.545015
vt 0.375000 0.545015
vt 0.573599 0.545015
vt 0.573599 0.545015
vt 0.573599 0.545015
vt 0.573599 0.545015
vt 0.573599 0.545015
vt 0.573599 0.545015
vt 0.375000 0.545015
vt 0.375000 0.545015
vt 0.375000 0.049676
vt 0.573599 0.049676
vt 0.125000 0.545015
vt 0.125000 0.700324
vt 0.125000 0.700324
vt 0.125000 0.545015
vt 0.259946 0.750000
vt 0.375000 0.750000
vt 0.375000 0.750000
vt 0.259946 0.750000
vt 0.125000 0.500000
vt 0.125000 0.750000
vt 0.573599 0.750000
vt 0.573599 0.865054
vt 0.375000 0.865054
vt 0.573599 0.750000
vt 0.573599 0.865054
vt 0.375000 0.750000
vt 0.375000 0.750000
vt 0.375000 0.750000
vt 0.375000 0.750000
vt 0.573599 0.865054
vt 0.573599 0.865054
vt 0.573599 0.865054
vt 0.573599 0.865054
vt 0.375000 0.865054
vt 0.573599 0.750000
vt 0.573599 0.750000
vt 0.573599 0.545015
vt 0.573599 0.750000
vt 0.573599 0.750000
vt 0.573599 0.545015
vt 0.375000 0.545015
vt 0.573599 0.545015
vt 0.375000 0.545015
vt 0.573599 0.545015
vt 0.573599 0.545015
vt 0.573599 0.545015
vt 0.375000 0.545015
vt 0.375000 0.545015
vt 0.573599 0.545015
vt 0.573599 0.545015
vt 0.573599 0.545015
vt 0.573599 0.545015
vt 0.573599 0.545015
vt 0.573599 0.545015
vt 0.573599 0.545015
vt 0.573599 0.545015
vt 0.573599 0.545015
vt 0.573599 0.545015
vt 0.375000 0.545015
vt 0.573599 0.545015
vt 0.573599 0.865054
vt 0.375000 0.865054
vt 0.375000 0.865054
vt 0.259946 0.750000
vt 0.259946 0.750000
vt 0.573599 0.865054
vt 0.573599 0.865054
vt 0.573599 0.865054
vt 0.573599 0.865054
vt 0.259946 0.750000
vt 0.259946 0.750000
vt 0.375000 0.545015
vt 0.573599 0.545015
vt 0.375000 0.545015
vt 0.573599 0.545015
vt 0.375000 0.545015
vt 0.375000 0.545015
vt 0.573599 0.545015
vt 0.375000 0.545015
vt 0.573599 0.545015
vt 0.573599 0.545015
vt 0.375000 0.545015
vt 0.375000 0.545015
vt 0.573599 0.545015
vt 0.573599 0.545015
vt 0.573599 0.545015
vt 0.573599 0.545015
vt 0.573599 0.545015
vt 0.573599 0.545015
vt 0.573599 0.545015
vt 0.573599 0.700324
vt 0.573599 0.700324
vt 0.375000 0.700324
vt 0.573599 0.700324
vt 0.375000 0.700324
vt 0.375000 0.700324
vt 0.375000 0.700324
vt 0.573599 0.700324
vt 0.573599 0.700324
vt 0.375000 0.700324
vt 0.375000 0.700324
vt 0.573599 0.700324
vt 0.573599 0.700324
vt 0.375000 0.700324
vt 0.573599 0.700324
vt 0.573599 0.700324
vt 0.573599 0.700324
vt 0.573599 0.700324
vt 0.573599 0.700324
vt 0.375000 0.700324
vt 0.573599 0.700324
vt 0.573599 0.700324
vt 0.375000 0.700324
vt 0.573599 0.700324
vt 0.375000 0.700324
vt 0.573599 0.700324
vt 0.573599 0.700324
vt 0.573599 0.700324
vt 0.573599 0.700324
vt 0.573599 0.700324
vt 0.573599 0.700324
vt 0.573599 0.700324
vt 0.573599 0.700324
vt 0.573599 0.700324
vt 0.573599 0.700324
vt 0.573599 0.700324
vt 0.375000 0.865054
vt 0.573599 0.865054
vt 0.375000 0.865054
vt 0.259946 0.750000
vt 0.259946 0.750000
vt 0.573599 0.865054
vt 0.573599 0.865054
vt 0.573599 0.865054
vt 0.573599 0.865054
vt 0.375000 0.865054
vt 0.375000 0.865054
vt 0.573599 0.865054
vt 0.573599 0.865054
vt 0.375000 0.865054
vt 0.573599 0.865054
vt 0.573599 0.865054
vt 0.573599 0.865054
vt 0.573599 0.865054
vt 0.573599 0.865054
vt 0.573599 0.865054
vt 0.375000 0.865054
vt 0.375000 0.865054
vt 0.375000 0.865054
vt 0.259946 0.750000
vt 0.259946 0.750000
vt 0.259946 0.750000
vt 0.259946 0.750000
vt 0.573599 0.545015
vt 0.573599 0.545015
vt 0.573599 0.545015
vt 0.573599 0.545015
vt 0.573599 0.545015
vt 0.573599 0.545015
vt 0.573599 0.545015
vt 0.375000 0.545015
vt 0.573599 0.545015
vt 0.375000 0.545015
vt 0.375000 0.545015
vt 0.375000 0.545015
vt 0.573599 0.545015
vn 0.0000 1.0000 0.0000
vn 0.0000 0.0000 1.0000
vn -1.0000 0.0000 0.0000
vn 0.0000 -1.0000 0.0000
vn 1.0000 0.0000 0.0000
vn 0.0000 0.0000 -1.0000
usemtl Material
s off
f 90/1/1 11/2/1 7/3/1 86/4/1
f 94/5/2 86/6/2 7/7/2 18/8/2
f 24/9/3 13/10/3 5/11/3 20/12/3
f 89/13/4 12/14/4 4/15/4 87/16/4
f 21/17/5 10/18/5 3/19/5 19/20/5
f 93/21/6 88/22/6 1/23/6 17/24/6
f 23/25/5 16/26/5 10/18/5 21/17/5
f 92/27/4 14/28/4 12/14/4 89/13/4
f 18/29/3 7/30/3 11/31/3 22/32/3
f 91/33/1 13/34/1 11/2/1 90/1/1
f 88/35/1 5/36/1 13/34/1 91/33/1
f 85/37/4 2/38/4 14/28/4 92/27/4
f 17/24/5 1/23/5 16/26/5 23/25/5
f 22/32/3 11/31/3 13/10/3 24/9/3
f 24/9/6 15/39/6 81/40/6 84/41/6
f 2/38/5 17/24/5 23/25/5 14/28/5
f 8/42/3 18/29/3 22/32/3 9/43/3
f 156/44/4 155/45/4 38/46/4 39/47/4
f 85/48/6 93/21/6 17/24/6 2/38/6
f 12/14/5 21/17/5 19/20/5 4/15/5
f 15/39/3 24/9/3 20/12/3 6/49/3
f 87/50/2 94/5/2 18/8/2 8/51/2
f 27/52/5 28/53/5 25/54/5 26/55/5
f 29/56/4 31/57/4 27/52/4 26/55/4
f 32/58/1 30/59/1 25/54/1 28/53/1
f 46/60/3 45/61/3 36/62/3 35/63/3
f 14/28/6 23/25/6 32/58/6 31/57/6
f 23/25/1 21/17/1 30/59/1 32/58/1
f 12/14/4 14/28/4 31/57/4 29/56/4
f 21/17/2 12/14/2 29/56/2 30/59/2
f 35/63/6 36/62/6 33/64/6 34/65/6
f 47/66/4 46/60/4 35/63/4 34/65/4
f 48/67/5 47/66/5 34/65/5 33/64/5
f 45/61/1 48/67/1 33/64/1 36/62/1
f 70/68/4 74/69/4 114/70/4 111/71/4
f 157/72/3 156/44/3 39/47/3 40/73/3
f 155/45/5 158/74/5 37/75/5 38/46/5
f 158/74/1 157/72/1 40/73/1 37/75/1
f 32/58/1 28/53/1 44/76/1 41/77/1
f 28/53/5 27/52/5 43/78/5 44/76/5
f 27/52/4 31/57/4 42/79/4 43/78/4
f 31/57/3 32/58/3 41/77/3 42/79/3
f 41/77/1 44/76/1 48/67/1 45/61/1
f 44/76/5 43/78/5 47/66/5 48/67/5
f 43/78/4 42/79/4 46/60/4 47/66/4
f 45/61/5 46/60/5 54/80/5 53/81/5
f 116/82/3 115/83/3 78/84/3 77/85/3
f 51/86/3 50/87/3 60/88/3 59/89/3
f 46/60/4 42/79/4 50/87/4 49/90/4
f 52/91/3 51/86/3 63/92/3 64/93/3
f 53/81/6 54/80/6 56/94/6 55/95/6
f 46/60/4 49/90/4 56/94/4 54/80/4
f 55/95/3 52/91/3 64/93/3 65/96/3
f 49/90/3 52/91/3 55/95/3 56/94/3
f 58/97/2 57/98/2 59/89/2 60/88/2
f 51/86/3 59/89/3 68/99/3 63/92/3
f 42/79/5 41/77/5 57/98/5 58/97/5
f 50/87/4 42/79/4 58/97/4 60/88/4
f 61/100/1 62/101/1 64/93/1 63/92/1
f 64/93/1 62/101/1 66/102/1 65/96/1
f 61/100/1 63/92/1 68/99/1 67/103/1
f 45/61/5 53/81/5 66/102/5 62/101/5
f 57/98/5 41/77/5 61/100/5 67/103/5
f 53/81/6 55/95/6 65/96/6 66/102/6
f 59/89/2 57/98/2 67/103/2 68/99/2
f 41/77/5 45/61/5 62/101/5 61/100/5
f 70/68/3 71/104/3 72/105/3 69/106/3
f 73/107/1 75/108/1 72/105/1 71/104/1
f 76/109/4 74/69/4 70/68/4 69/106/4
f 75/108/6 76/109/6 69/106/6 72/105/6
f 52/91/6 49/90/6 76/109/6 75/108/6
f 49/90/4 50/87/4 74/69/4 76/109/4
f 51/86/1 52/91/1 75/108/1 73/107/1
f 50/87/2 51/86/2 73/107/2 74/69/2
f 149/110/6 137/111/6 225/112/6 228/113/6
f 117/114/1 116/82/1 77/85/1 79/115/1
f 118/116/5 117/114/5 79/115/5 80/117/5
f 115/83/4 118/116/4 80/117/4 78/84/4
f 82/118/3 83/119/3 84/41/3 81/40/3
f 22/32/1 24/9/1 84/41/1 83/119/1
f 15/120/4 9/121/4 82/122/4 81/123/4
f 9/43/2 22/32/2 83/119/2 82/118/2
f 100/124/4 99/125/4 96/126/4 97/127/4
f 6/49/6 20/12/6 93/21/6 85/48/6
f 6/128/4 85/37/4 92/27/4 15/120/4
f 1/23/1 88/35/1 91/33/1 16/26/1
f 16/26/1 91/33/1 90/1/1 10/18/1
f 15/120/4 92/27/4 89/13/4 9/121/4
f 20/12/6 5/11/6 88/22/6 93/21/6
f 9/121/4 89/13/4 87/16/4 8/129/4
f 19/20/2 3/19/2 86/6/2 94/5/2
f 10/18/1 90/1/1 86/4/1 3/19/1
f 96/126/2 95/130/2 98/131/2 97/132/2
f 102/133/1 101/134/1 98/131/1 95/130/1
f 108/135/4 107/136/4 105/137/4 104/138/4
f 133/139/3 197/140/3 207/141/3 206/142/3
f 94/5/3 87/50/3 100/143/3 101/134/3
f 4/15/5 19/20/5 102/133/5 99/125/5
f 19/20/1 94/5/1 101/134/1 102/133/1
f 87/16/4 4/15/4 99/125/4 100/124/4
f 105/137/5 106/144/5 103/145/5 104/138/5
f 74/69/5 73/107/5 113/146/5 114/70/5
f 110/147/2 108/135/2 104/138/2 103/145/2
f 109/148/1 110/147/1 103/145/1 106/144/1
f 102/133/1 95/130/1 110/147/1 109/148/1
f 95/130/2 96/126/2 108/135/2 110/147/2
f 99/125/6 102/133/6 109/148/6 107/136/6
f 96/126/4 99/125/4 107/136/4 108/135/4
f 73/107/1 71/104/1 112/149/1 113/146/1
f 71/104/3 70/68/3 111/71/3 112/149/3
f 111/71/4 114/70/4 118/116/4 115/83/4
f 114/70/5 113/146/5 117/114/5 118/116/5
f 113/146/1 112/149/1 116/82/1 117/114/1
f 112/149/6 111/71/6 121/150/6 120/151/6
f 120/151/3 121/150/3 122/152/3 119/153/3
f 120/151/3 119/153/3 129/154/3 130/155/3
f 111/71/4 115/83/4 122/152/4 121/150/4
f 122/152/4 115/83/4 123/156/4 125/157/4
f 123/156/2 124/158/2 126/159/2 125/157/2
f 119/153/3 122/152/3 125/157/3 126/159/3
f 127/160/4 132/161/4 246/162/4 242/163/4
f 112/149/2 128/164/2 245/165/2 240/166/2
f 127/160/1 128/164/1 130/155/1 129/154/1
f 127/160/1 129/154/1 131/167/1 132/161/1
f 124/158/6 123/156/6 243/168/6 244/169/6
f 112/149/6 120/151/6 130/155/6 128/164/6
f 119/153/3 126/159/3 131/167/3 129/154/3
f 126/159/2 124/158/2 132/161/2 131/167/2
f 135/170/3 136/171/3 134/172/3 133/139/3
f 100/124/4 97/127/4 134/173/4 136/174/4
f 203/175/4 204/176/4 221/177/4 215/178/4
f 100/124/4 136/174/4 201/179/4 199/180/4
f 140/181/2 139/182/2 137/111/2 138/183/2
f 80/117/5 79/115/5 139/182/5 140/181/5
f 79/115/1 77/85/1 137/111/1 139/182/1
f 78/84/4 80/117/4 140/181/4 138/183/4
f 141/184/3 142/185/3 144/186/3 143/187/3
f 78/84/4 138/183/4 144/186/4 142/185/4
f 138/183/2 137/111/2 143/187/2 144/186/2
f 146/188/2 145/189/2 226/190/2 227/191/2
f 145/189/6 146/188/6 148/192/6 147/193/6
f 78/84/4 142/185/4 148/192/4 146/188/4
f 142/185/3 141/184/3 147/193/3 148/192/3
f 147/193/3 141/184/3 152/194/3 153/195/3
f 149/110/1 150/196/1 152/194/1 151/197/1
f 152/194/1 150/196/1 154/198/1 153/195/1
f 145/189/6 147/193/6 153/195/6 154/198/6
f 143/187/2 137/111/2 149/110/2 151/197/2
f 141/184/3 143/187/3 151/197/3 152/194/3
f 137/111/1 77/85/1 223/199/1 225/112/1
f 162/200/1 160/201/1 157/72/1 158/74/1
f 158/74/2 155/45/2 164/202/2 166/203/2
f 160/201/3 159/204/3 156/44/3 157/72/3
f 159/204/4 161/205/4 155/45/4 156/44/4
f 29/56/4 26/55/4 161/205/4 159/204/4
f 30/59/3 29/56/3 159/204/3 160/201/3
f 26/55/5 25/54/5 162/200/5 161/205/5
f 25/54/1 30/59/1 160/201/1 162/200/1
f 166/203/3 164/202/3 172/206/3 171/207/3
f 162/200/1 158/74/1 166/203/1 165/208/1
f 161/205/6 162/200/6 165/208/6 163/209/6
f 155/45/4 161/205/4 163/209/4 164/202/4
f 167/210/5 169/211/5 170/212/5 168/213/5
f 164/202/4 163/209/4 167/210/4 168/213/4
f 175/214/3 165/208/3 179/215/3 185/216/3
f 170/212/5 169/211/5 181/217/5 182/218/5
f 171/207/2 172/206/2 174/219/2 173/220/2
f 173/220/5 170/212/5 182/218/5 183/221/5
f 164/202/4 168/213/4 174/219/4 172/206/4
f 168/213/5 170/212/5 173/220/5 174/219/5
f 176/222/6 175/214/6 177/223/6 178/224/6
f 169/211/5 167/210/5 178/224/5 177/223/5
f 163/209/3 165/208/3 175/214/3 176/222/3
f 167/210/4 163/209/4 176/222/4 178/224/4
f 181/217/2 186/225/2 194/226/2 189/227/2
f 182/218/2 181/217/2 189/227/2 190/228/2
f 180/229/2 184/230/2 192/231/2 188/232/2
f 177/223/6 175/214/6 185/216/6 186/225/6
f 165/208/3 166/203/3 180/229/3 179/215/3
f 166/203/3 171/207/3 184/230/3 180/229/3
f 171/207/2 173/220/2 183/221/2 184/230/2
f 169/211/5 177/223/5 186/225/5 181/217/5
f 187/233/1 189/227/1 194/226/1 193/234/1
f 187/233/1 188/232/1 190/228/1 189/227/1
f 190/228/1 188/232/1 192/231/1 191/235/1
f 183/221/2 182/218/2 190/228/2 191/235/2
f 184/230/2 183/221/2 191/235/2 192/231/2
f 179/215/2 180/229/2 188/232/2 187/233/2
f 185/216/2 179/215/2 187/233/2 193/234/2
f 186/225/2 185/216/2 193/234/2 194/226/2
f 196/236/2 195/237/2 197/140/2 198/238/2
f 134/173/4 97/127/4 196/239/4 198/240/4
f 208/241/6 195/237/6 218/242/6 222/243/6
f 133/139/3 134/172/3 198/238/3 197/140/3
f 200/244/6 199/245/6 201/246/6 202/247/6
f 136/171/3 135/170/3 202/247/3 201/246/3
f 204/176/4 208/241/4 222/243/4 221/177/4
f 199/245/2 200/244/2 216/248/2 220/249/2
f 204/176/1 203/175/1 205/250/1 206/142/1
f 204/176/1 206/142/1 207/141/1 208/241/1
f 205/250/1 203/175/1 209/251/1 210/252/1
f 197/140/2 195/237/2 208/241/2 207/141/2
f 135/170/3 133/139/3 206/142/3 205/250/3
f 209/251/4 203/175/4 215/178/4 217/253/4
f 202/247/3 135/170/3 205/250/3 210/252/3
f 200/244/6 202/247/6 210/252/6 209/251/6
f 211/254/5 213/255/5 215/178/5 221/177/5
f 212/256/5 211/254/5 218/242/5 219/257/5
f 213/255/5 216/248/5 217/253/5 215/178/5
f 213/255/5 214/258/5 220/249/5 216/248/5
f 218/242/5 211/254/5 221/177/5 222/243/5
f 101/134/6 100/143/6 214/258/6 213/255/6
f 196/239/1 97/127/1 212/259/1 219/260/1
f 100/124/1 199/180/1 220/261/1 214/262/1
f 98/131/1 101/134/1 213/255/1 211/254/1
f 195/237/6 196/236/6 219/257/6 218/242/6
f 200/244/2 209/251/2 217/253/2 216/248/2
f 97/132/2 98/131/2 211/254/2 212/256/2
f 229/263/2 228/113/2 236/264/2 237/265/2
f 226/190/2 230/266/2 238/267/2 234/268/2
f 228/113/2 225/112/2 233/269/2 236/264/2
f 77/85/6 78/84/6 224/270/6 223/199/6
f 145/189/2 154/198/2 230/266/2 226/190/2
f 150/196/4 149/110/4 228/113/4 229/263/4
f 78/84/1 146/188/1 227/191/1 224/270/1
f 154/198/4 150/196/4 229/263/4 230/266/4
f 231/271/5 232/272/5 235/273/5 234/268/5
f 231/271/5 234/268/5 238/267/5 237/265/5
f 233/269/5 231/271/5 237/265/5 236/264/5
f 224/270/2 227/191/2 235/273/2 232/272/2
f 225/112/2 223/199/2 231/271/2 233/269/2
f 230/266/2 229/263/2 237/265/2 238/267/2
f 227/191/2 226/190/2 234/268/2 235/273/2
f 223/199/2 224/270/2 232/272/2 231/271/2
f 241/274/5 239/275/5 244/169/5 243/168/5
f 244/169/5 239/275/5 242/163/5 246/162/5
f 239/275/5 240/166/5 245/165/5 242/163/5
f 116/82/1 112/149/1 240/166/1 239/275/1
f 128/164/4 127/160/4 242/163/4 245/165/4
f 132/161/6 124/158/6 244/169/6 246/162/6
f 123/156/1 115/83/1 241/274/1 243/168/1
f 115/83/2 116/82/2 239/275/2 241/274/2
